<svg xmlns="http://www.w3.org/2000/svg" xmlns:xlink="http://www.w3.org/1999/xlink" viewBox="4523 176 263.258 30">
  <defs>
    <style>
      .cls-1 {
        fill: #3e3d61;
      }

      .cls-2 {
        fill: url(#linear-gradient);
      }

      .cls-3 {
        fill: url(#linear-gradient-2);
      }

      .cls-4 {
        fill: url(#linear-gradient-3);
      }

      .cls-5 {
        fill: url(#linear-gradient-4);
      }

      .cls-6 {
        fill: url(#linear-gradient-5);
      }

      .cls-7 {
        fill: url(#linear-gradient-6);
      }

      .cls-8 {
        fill: url(#linear-gradient-7);
      }

      .cls-9 {
        fill: none;
        stroke: #95989a;
        stroke-miterlimit: 10;
      }
    </style>
    <linearGradient id="linear-gradient" x1="0.501" y1="-0.001" x2="0.501" y2="1" gradientUnits="objectBoundingBox">
      <stop offset="0" stop-color="#7aafff"/>
      <stop offset="1" stop-color="#64abff"/>
    </linearGradient>
    <linearGradient id="linear-gradient-2" x1="0.499" y1="0" x2="0.499" y2="0.999" xlink:href="#linear-gradient"/>
    <linearGradient id="linear-gradient-3" x1="0.5" y1="-0.001" x2="0.5" y2="1" xlink:href="#linear-gradient"/>
    <linearGradient id="linear-gradient-4" x1="0.501" y1="-0.001" x2="0.501" y2="1" gradientUnits="objectBoundingBox">
      <stop offset="0" stop-color="#5c6593"/>
      <stop offset="1" stop-color="#3e3d61"/>
      <stop offset="1" stop-color="#64abff"/>
    </linearGradient>
    <linearGradient id="linear-gradient-5" x1="0.499" y1="-0.001" x2="0.499" y2="1" xlink:href="#linear-gradient-4"/>
    <linearGradient id="linear-gradient-6" x1="0.5" y1="-0.001" x2="0.5" y2="1" xlink:href="#linear-gradient-4"/>
    <linearGradient id="linear-gradient-7" x1="0.499" y1="0" x2="0.499" y2="1" xlink:href="#linear-gradient"/>
  </defs>
  <g id="Group_328" data-name="Group 328" transform="translate(4493 146)">
    <g id="Group_2" data-name="Group 2" transform="translate(191.498 30.784)">
      <g id="Group_1" data-name="Group 1">
        <path id="Path_1" data-name="Path 1" class="cls-1" d="M315.219,8.556a3.3,3.3,0,0,1-3.5,3.606,20.851,20.851,0,0,1-2.509-.157A.191.191,0,0,1,309,11.8V1.709c0-.157.052-.209.209-.209h.575c.157,0,.209.052.209.209V6.1a3.54,3.54,0,0,1,2.509-1.15C314.749,4.949,315.219,6.988,315.219,8.556Zm-1.045,0c0-1.1-.209-2.718-1.934-2.718a3.3,3.3,0,0,0-2.3,1.2v4.181c.575.052,1.15.052,1.777.052C313.233,11.274,314.174,10.385,314.174,8.556Z" transform="translate(-309 -1.5)"/>
        <path id="Path_2" data-name="Path 2" class="cls-1" d="M332.224,11.288h0c0,.47-.209.784-.836.784h-4.495a2.228,2.228,0,0,0,2.561,2.352,4.024,4.024,0,0,0,2.143-.836c.1-.1.209,0,.261.157l.209.366c.052.1,0,.157-.1.261a4.642,4.642,0,0,1-2.718.941c-1.516,0-3.345-.836-3.345-3.606,0-2.4,1.254-3.606,3.188-3.606A2.874,2.874,0,0,1,332.224,11.288Zm-.993,0c-.052-1.463-.575-2.352-2.143-2.352-1.307,0-2.038.679-2.143,2.352Z" transform="translate(-317.067 -4.651)"/>
        <path id="Path_3" data-name="Path 3" class="cls-1" d="M346.529,13.5a4.473,4.473,0,0,1-1.568.261c-1.307,0-1.62-.732-1.62-2.091V7.543h-.732c-.157,0-.209-.052-.209-.209V6.968l.941-.157V5.662c0-.157,0-.314.157-.366l.627-.314c.157-.052.209,0,.209.157V6.707h1.777c.157,0,.209.052.209.209v.418c0,.157-.052.209-.209.209h-1.777v3.763c0,1.254.157,1.62.993,1.62a3.416,3.416,0,0,0,1.1-.209c.1-.052.209.052.209.209l.052.366C346.738,13.4,346.633,13.449,346.529,13.5Z" transform="translate(-324.944 -3.153)"/>
        <path id="Path_4" data-name="Path 4" class="cls-1" d="M363.538,8.561l-2.352,6.533a.241.241,0,0,1-.261.157h-.575a.287.287,0,0,1-.261-.157l-1.2-3.4-1.2,3.4a.241.241,0,0,1-.261.157H356.8a.287.287,0,0,1-.261-.157l-2.352-6.533c-.052-.157,0-.261.157-.261h.627a.287.287,0,0,1,.261.157l1.882,5.645,1.254-3.763-.627-1.777c-.052-.157,0-.261.157-.261h.575a.287.287,0,0,1,.261.157l1.882,5.592,1.882-5.592a.241.241,0,0,1,.261-.157h.627C363.538,8.3,363.59,8.4,363.538,8.561Z" transform="translate(-330.558 -4.746)"/>
        <path id="Path_5" data-name="Path 5" class="cls-1" d="M382.824,11.288h0c0,.47-.209.784-.836.784h-4.495a2.228,2.228,0,0,0,2.561,2.352,4.024,4.024,0,0,0,2.143-.836c.1-.1.209,0,.261.157l.209.366c.052.1,0,.157-.1.261a4.642,4.642,0,0,1-2.718.941c-1.516,0-3.345-.836-3.345-3.606,0-2.4,1.254-3.606,3.188-3.606A2.874,2.874,0,0,1,382.824,11.288Zm-.993,0c-.052-1.463-.575-2.352-2.143-2.352-1.307,0-2.038.679-2.143,2.352Z" transform="translate(-341.221 -4.651)"/>
        <path id="Path_6" data-name="Path 6" class="cls-1" d="M399.924,11.288h0c0,.47-.209.784-.836.784h-4.495a2.228,2.228,0,0,0,2.561,2.352,4.024,4.024,0,0,0,2.143-.836c.1-.1.209,0,.261.157l.209.366c.052.1,0,.157-.1.261a4.642,4.642,0,0,1-2.718.941c-1.516,0-3.345-.836-3.345-3.606,0-2.4,1.254-3.606,3.188-3.606A2.874,2.874,0,0,1,399.924,11.288Zm-.993,0c-.052-1.463-.575-2.352-2.143-2.352-1.307,0-2.038.679-2.143,2.352Z" transform="translate(-349.384 -4.651)"/>
        <path id="Path_7" data-name="Path 7" class="cls-1" d="M417.2,10.77V14.9c0,.157-.052.209-.209.209h-.575c-.157,0-.209-.052-.209-.209V11.345c0-1.463-.1-2.4-1.672-2.4a2.854,2.854,0,0,0-2.143,1.2V14.9c0,.157-.052.209-.209.209h-.575c-.157,0-.209-.052-.209-.209V8.366c0-.157.052-.209.209-.209h.209c.366,0,.575.261.575.836V9.2A3.168,3.168,0,0,1,414.849,8C416.208,8.052,417.2,8.575,417.2,10.77Z" transform="translate(-357.881 -4.603)"/>
        <path id="Path_8" data-name="Path 8" class="cls-1" d="M315.219,40.706a3.3,3.3,0,0,1-3.5,3.606c-.523,0-1.15-.052-1.725-.052V47.5c0,.157-.052.209-.209.209h-.575c-.157,0-.209-.052-.209-.209V37.466c0-.157.052-.209.209-.209h.209c.366,0,.575.261.575.836v.157A3.539,3.539,0,0,1,312.5,37.1C314.749,37.152,315.219,39.138,315.219,40.706Zm-1.045,0c0-1.1-.209-2.718-1.934-2.718a3.3,3.3,0,0,0-2.3,1.2v4.181c.575.052,1.15.052,1.777.052C313.233,43.476,314.174,42.588,314.174,40.706Z" transform="translate(-309 -18.494)"/>
        <path id="Path_9" data-name="Path 9" class="cls-1" d="M332.224,40.388h0c0,.47-.209.784-.836.784h-4.495a2.228,2.228,0,0,0,2.561,2.352,4.024,4.024,0,0,0,2.143-.836c.1-.1.209,0,.261.157l.209.366c.052.1,0,.157-.1.261a4.642,4.642,0,0,1-2.718.941c-1.516,0-3.345-.836-3.345-3.606,0-2.4,1.254-3.606,3.188-3.606A2.874,2.874,0,0,1,332.224,40.388Zm-.993,0c-.052-1.463-.575-2.352-2.143-2.352-1.307,0-2.038.679-2.143,2.352Z" transform="translate(-317.067 -18.541)"/>
        <path id="Path_10" data-name="Path 10" class="cls-1" d="M342.9,40.706c0-2.613,1.359-3.606,3.345-3.606s3.4,1.1,3.4,3.606c0,2.352-1.359,3.606-3.4,3.606C344.311,44.313,342.9,43.058,342.9,40.706Zm5.749,0c0-1.934-.888-2.718-2.352-2.718s-2.352.836-2.352,2.718.889,2.718,2.352,2.718C347.761,43.476,348.649,42.64,348.649,40.706Z" transform="translate(-325.182 -18.494)"/>
        <path id="Path_11" data-name="Path 11" class="cls-1" d="M367.82,40.706a3.3,3.3,0,0,1-3.5,3.606c-.523,0-1.15-.052-1.725-.052V47.5c0,.157-.052.209-.209.209h-.575c-.157,0-.209-.052-.209-.209V37.466c0-.157.052-.209.209-.209h.209c.366,0,.575.261.575.836v.157A3.54,3.54,0,0,1,365.1,37.1C367.3,37.152,367.82,39.138,367.82,40.706Zm-1.045,0c0-1.1-.209-2.718-1.934-2.718a3.3,3.3,0,0,0-2.3,1.2v4.181c.575.052,1.15.052,1.777.052C365.833,43.476,366.774,42.588,366.774,40.706Z" transform="translate(-334.109 -18.494)"/>
        <path id="Path_12" data-name="Path 12" class="cls-1" d="M381.456,40.9a2.859,2.859,0,0,1-1.2.314c-.941,0-1.254-.523-1.254-2.2V30.809c0-.157.052-.209.209-.209h.575c.157,0,.209.052.209.209v7.84c0,1.2.052,1.725.47,1.725a1.926,1.926,0,0,0,.888-.261c.1-.052.157,0,.209.1l.1.47C381.666,40.792,381.561,40.844,381.456,40.9Z" transform="translate(-342.415 -15.391)"/>
        <path id="Path_13" data-name="Path 13" class="cls-1" d="M394.724,40.388h0c0,.47-.209.784-.836.784h-4.495a2.228,2.228,0,0,0,2.561,2.352,4.024,4.024,0,0,0,2.143-.836c.1-.1.209,0,.261.157l.209.366c.052.1,0,.157-.1.261a4.642,4.642,0,0,1-2.718.941c-1.516,0-3.345-.836-3.345-3.606,0-2.4,1.254-3.606,3.188-3.606A2.9,2.9,0,0,1,394.724,40.388Zm-1.045,0c-.052-1.463-.575-2.352-2.143-2.352-1.307,0-2.038.679-2.143,2.352Z" transform="translate(-346.902 -18.541)"/>
        <path id="Path_14" data-name="Path 14" class="cls-1" d="M423.535,41.344h-.627a.287.287,0,0,1-.261-.157c-.366-.418-.679-.784-.993-1.15a3.072,3.072,0,0,1-2.822,1.411A2.955,2.955,0,0,1,415.8,38.26a2.956,2.956,0,0,1,1.777-3.031A3.071,3.071,0,0,1,417,33.556a2.34,2.34,0,0,1,2.509-2.456,4.043,4.043,0,0,1,2.456.836.246.246,0,0,1,.052.314l-.209.314c-.1.157-.209.261-.418.1a3.014,3.014,0,0,0-1.725-.732,1.552,1.552,0,0,0-1.725,1.62,2.571,2.571,0,0,0,.679,1.62c.366.47,1.463,1.777,2.77,3.24.261-.627.418-1.359.575-1.777.052-.157.157-.209.261-.1l.47.261a.191.191,0,0,1,.1.261,14.225,14.225,0,0,1-.784,2.143l1.62,1.882C423.8,41.239,423.692,41.344,423.535,41.344Zm-2.561-2.038c-1.411-1.568-2.509-2.77-2.927-3.293a2.242,2.242,0,0,0-1.307,2.247,2.171,2.171,0,0,0,2.2,2.352A2.251,2.251,0,0,0,420.974,39.306Z" transform="translate(-359.981 -15.63)"/>
        <path id="Path_15" data-name="Path 15" class="cls-1" d="M451.92,41.105h-.209c-.314,0-.575-.366-.627-.889l-.052-.314a3.564,3.564,0,0,1-2.561,1.359c-2.247,0-2.77-2.038-2.77-3.606,0-2.3,1.307-3.606,3.449-3.606.47,0,1.15.052,1.829.052V30.809c0-.157.052-.209.209-.209h.575c.157,0,.209.052.209.209V39.38a7.1,7.1,0,0,0,.157,1.516C452.181,41,452.076,41.105,451.92,41.105Zm-.941-2.091V34.99c-.627-.052-1.307-.1-1.829-.1-1.516,0-2.4.889-2.4,2.718,0,1.1.209,2.718,1.934,2.718A3.649,3.649,0,0,0,450.979,39.015Z" transform="translate(-374.254 -15.391)"/>
        <path id="Path_16" data-name="Path 16" class="cls-1" d="M469.192,44.3h-.209c-.314,0-.575-.314-.627-.889l-.052-.209A3.972,3.972,0,0,1,465.8,44.46a1.924,1.924,0,0,1-2.2-2.143c0-1.463,1.15-2.143,2.875-2.143.523,0,1.15.052,1.777.052V39.6c0-.941-.47-1.463-1.882-1.463a3.963,3.963,0,0,0-1.725.47c-.157.1-.261.052-.366-.1l-.157-.314a.251.251,0,0,1,.1-.314,4.252,4.252,0,0,1,2.3-.575c1.673,0,2.718.523,2.718,2.2v3.136a7.1,7.1,0,0,0,.157,1.516C469.454,44.2,469.349,44.3,469.192,44.3Zm-.941-1.986V41.011c-.627-.052-1.254-.052-1.777-.052-1.254,0-1.882.523-1.882,1.307s.366,1.254,1.359,1.254A3.415,3.415,0,0,0,468.252,42.317Z" transform="translate(-382.799 -18.589)"/>
        <path id="Path_17" data-name="Path 17" class="cls-1" d="M483.729,42.6a4.473,4.473,0,0,1-1.568.261c-1.307,0-1.62-.732-1.62-2.091V36.643h-.732c-.157,0-.209-.052-.209-.209v-.418l.941-.157v-1.1c0-.157,0-.314.157-.366l.627-.314c.157-.052.209,0,.209.157v1.568h1.777c.157,0,.209.052.209.209v.418c0,.157-.052.209-.209.209h-1.777v3.763c0,1.254.157,1.62.993,1.62a3.417,3.417,0,0,0,1.1-.209c.1-.052.209.052.209.209l.052.366C483.99,42.5,483.833,42.549,483.729,42.6Z" transform="translate(-390.436 -17.044)"/>
        <path id="Path_18" data-name="Path 18" class="cls-1" d="M498.192,44.3h-.209c-.314,0-.575-.314-.627-.889l-.052-.209A3.972,3.972,0,0,1,494.8,44.46a1.924,1.924,0,0,1-2.2-2.143c0-1.463,1.15-2.143,2.875-2.143.523,0,1.15.052,1.777.052V39.6c0-.941-.47-1.463-1.882-1.463a3.964,3.964,0,0,0-1.725.47c-.157.1-.261.052-.366-.1l-.157-.314a.251.251,0,0,1,.1-.314,4.252,4.252,0,0,1,2.3-.575c1.673,0,2.718.523,2.718,2.2v3.136a7.1,7.1,0,0,0,.157,1.516A.233.233,0,0,1,498.192,44.3Zm-.941-1.986V41.011c-.627-.052-1.254-.052-1.777-.052-1.254,0-1.882.523-1.882,1.307s.366,1.254,1.359,1.254A3.415,3.415,0,0,0,497.252,42.317Z" transform="translate(-396.642 -18.589)"/>
      </g>
    </g>
    <g id="Group_3" data-name="Group 3" transform="translate(30 30)">
      <path id="Path_19" data-name="Path 19" class="cls-2" d="M9.408,1.1c5.122,0,8,2.979,8,7.056a5.751,5.751,0,0,1-3.815,5.592,6.184,6.184,0,0,1,4.6,6.22c0,4.233-3.188,7.317-8.1,7.317H0V1.1ZM8.624,11.919c2.352,0,3.711-1.307,3.711-3.293s-1.307-3.24-3.763-3.24H5.017v6.533Zm.523,11.132c2.456,0,3.972-1.307,3.972-3.4s-1.307-3.5-3.868-3.5H5.017v6.9Z" transform="translate(0 -0.525)"/>
      <path id="Path_20" data-name="Path 20" class="cls-3" d="M57.232,0A13.237,13.237,0,0,1,70.716,13.693a13.459,13.459,0,1,1-26.916,0A13.166,13.166,0,0,1,57.232,0Zm0,22.369c4.077,0,8.206-2.822,8.206-8.728s-4.129-8.728-8.206-8.728c-4.024,0-8.153,2.822-8.153,8.728C49.026,19.547,53.207,22.369,57.232,22.369Z" transform="translate(-20.908)"/>
      <path id="Path_21" data-name="Path 21" class="cls-4" d="M115.387,17.2h-2.666V27.285H107.6V1.1h10.244c5.122,0,8.362,3.5,8.362,8.049a7.421,7.421,0,0,1-5.592,7.422l5.592,10.714h-5.7Zm1.463-4.39c2.561,0,4.077-1.463,4.077-3.606,0-2.2-1.516-3.659-4.077-3.659h-4.129v7.265Z" transform="translate(-51.363 -0.525)"/>
      <path id="Path_22" data-name="Path 22" class="cls-5" d="M155.3,27.285V1.1h9.408c7.474,0,12.909,4.861,12.909,13.118s-5.488,13.066-12.962,13.066Zm9.2-4.756c4.286,0,7.892-2.666,7.892-8.362S168.837,5.8,164.551,5.8h-4.077V22.529Z" transform="translate(-74.133 -0.525)"/>
      <path id="Path_23" data-name="Path 23" class="cls-6" d="M210.1,27.285V1.1h16.411V5.908H215.222v6.01h10.244v4.547H215.222v6.01h11.289v4.808Z" transform="translate(-100.292 -0.525)"/>
      <path id="Path_24" data-name="Path 24" class="cls-7" d="M262.587,17.2h-2.665V27.285H254.8V1.1h10.244c5.122,0,8.362,3.5,8.362,8.049a7.421,7.421,0,0,1-5.592,7.422l5.592,10.714h-5.7Zm1.463-4.39c2.561,0,4.077-1.463,4.077-3.606,0-2.2-1.516-3.659-4.077-3.659h-4.129v7.265Z" transform="translate(-121.629 -0.525)"/>
      <path id="Path_26" data-name="Path 26" class="cls-8" d="M155.4,27.341V1l.1.1,12.753,13.014h0Z" transform="translate(-74.18 -0.477)"/>
      <path id="Path_27" data-name="Path 27" class="cls-9" d="M179.6,26.1" transform="translate(-85.732 -12.459)"/>
    </g>
  </g>
</svg>
