<?xml version="1.0" encoding="UTF-8"?><svg xmlns="http://www.w3.org/2000/svg" width="132" height="44pt" viewBox="0 0 99 44"><g fill="#f79420"><path d="M79.918 10.805c-.258-.461-.762-.723-1.387-.723h-1.765c-1.055 0-2.235.73-2.743 1.703 0 0-6.054 11.652-6.433 12.426-.16.332-.223.144-.25-.016-.192-1.125-2.11-12.222-2.11-12.222-.18-1.063-1.18-1.891-2.27-1.891l-1.222.008c-.597 0-1.156.25-1.531.691a1.928 1.928 0 00-.414 1.606l3.559 18.906c.195 1.05 1.203 1.875 2.289 1.875l1.218-.008c1.055 0 2.239-.726 2.754-1.687l10.223-19.047c.309-.57.336-1.164.082-1.621zm16.027 2.03c-1.492-1.804-3.687-2.757-6.351-2.757-5.918 0-10.875 4.715-12.051 11.469-.61 3.496.047 6.719 1.805 8.848 1.488 1.8 3.672 2.753 6.316 2.753 5.824 0 10.898-4.84 12.063-11.507.617-3.543-.016-6.668-1.782-8.805zm-9.484 15.212c-1.16 0-2.086-.41-2.75-1.215-.953-1.152-1.285-3.047-.914-5.191.773-4.438 3.652-6.457 6-6.457 1.176 0 2.105.406 2.773 1.21.942 1.141 1.27 3.02.899 5.153-.547 3.129-2.66 6.5-6.008 6.5zm-57.379 7.555l-.02.007c-13.75 3.68-18.074-4.058-18.406-4.699-1.629-2.375-2.105-5.887-1.445-9.672 1.172-6.722 5.723-12.652 11.976-12.652 6.329 0 8.735 5.93 7.563 12.652-1.188 6.801-5.664 12.735-11.988 12.735-.543 0-1.035-.04-1.485-.121.442.234.895.441 1.36.625 2.656 1.046 7.05 1.789 13.351-.16.996-.766 1.657-1.758 2.219-2.52 2.078-3.086 3.535-6.711 4.203-10.559C38.328 10.246 33.293 1.23 22.473 1.23c-10.825 0-19.004 9.016-20.922 20.008-.723 4.149-.45 8.043.765 11.282.664 2.437 5.555 11.101 17.825 10.015 12.98-1.515 18.214-10.824 18.214-10.824-3.484 1.863-6.558 3.11-9.273 3.89zm0 0"/><path d="M50.664 10.113c-6.352 0-11.488 4.735-12.66 11.723C36.87 28.59 40.55 33.012 46.82 33.21c5.352.156 9.11-2.887 9.11-2.887.511-.383.824-.941.52-1.613l-.837-1.777c-.34-.692-.957-.801-1.758-.317-.539.305-3.14 2.117-6.246 1.844-4.28-.3-4.617-3.816-4.617-3.816-.137-.938-.031-1.07.836-1.07H57.27c1.367 0 1.851-.985 1.976-1.716 1.164-6.96-2.273-11.746-8.582-11.746zm3.738 7.86c-.039.406-.02.71-.632.71l-8.657.005c-.129 0-.437-.067-.258-.715.243-.86 1.774-3.223 5.344-3.223 3.602 0 4.29 2.352 4.203 3.223zm0 0"/></g></svg>